# xmcd CD database file generated by OrangeCD 6.4
#
# Track frame offsets:
#	150
#	11288
#	51849
#	95057
#	119733
#	138866
#	141177
#	158638
#	224249
#
# Disc length: 3257 seconds
#
# Revision: 0
# Processed by: cddbd v1.5.2PL0 Copyright (c) Steve Scherf et al.
# Submitted via: OrangeCD 6.4
#
DISCID=840cb709
DTITLE=Outlaws - Live at the Record Plant, Los Angeles, November 1976
DYEAR=1900
DGENRE=
TTITLE0=Waterhole
TTITLE1=Stick Around For Some Rock N' Roll
TTITLE2=Song In The Breeze/Loverboy
TTITLE3=Freeborn Man
TTITLE4=Cry No More
TTITLE5=[Transition]
TTITLE6=Knoxville Girl
TTITLE7=Green Grass And High Tides
TTITLE8=There Goes Another Love Song
EXTD=
EXTT0=
EXTT1=
EXTT2=
EXTT3=
EXTT4=
EXTT5=
EXTT6=
EXTT7=
EXTT8=
PLAYORDER=
